<?xml version="1.0" standalone="no"?>

<!DOCTYPE svg PUBLIC "-//W3C//DTD SVG 20010904//EN"

 "http://www.w3.org/TR/2001/REC-SVG-20010904/DTD/svg10.dtd">

<svg version="1.0" xmlns="http://www.w3.org/2000/svg"

 width="1334.000000pt" height="432.000000pt" viewBox="0 0 1334.000000 432.000000"

 preserveAspectRatio="xMidYMid meet">

<path fill="#080604" stroke="none" d="
M985 354

C981 353 977 350 975 345

C973 341 973 339 973 331

C973 321 975 315 983 298

C985 294 987 290 987 289

L987 288

L981 288

C975 288 974 288 969 292

C961 298 952 300 942 301

C933 301 933 301 923 317

C917 325 912 334 912 335

C909 340 902 349 899 350

C894 353 889 353 885 352

C882 350 870 350 790 350

C701 350 698 350 690 348

C679 345 674 342 667 335

C662 330 661 328 659 321

C655 311 655 305 659 290

L659 288

L633 288

C606 288 600 287 595 283

C592 280 592 280 582 284

C572 288 572 288 522 288

C472 288 472 288 463 285

C459 283 453 280 451 278

C448 277 446 275 445 275

L445 275

L445 279

C445 284 437 327 435 333

C433 340 427 346 420 348

C415 350 406 350 306 350

C200 350 197 350 192 348

C183 345 176 336 176 328

C176 326 178 316 179 305

C181 294 183 284 182 284

C182 284 180 284 177 286

C172 287 167 287 112 288

C43 288 44 288 36 280

C28 271 28 273 36 221

C41 196 48 152 53 123

C58 93 63 67 64 64

C66 57 71 50 76 48

C80 46 84 46 143 46

C205 46 205 46 212 48

C215 50 220 52 222 52

C225 54 225 54 229 51

C235 46 237 46 272 46

C307 46 311 46 316 50

C319 53 319 53 329 49

C339 46 339 46 390 46

C441 46 441 46 449 49

C453 50 459 53 461 55

C463 57 465 58 465 58

C466 58 468 56 470 54

C477 46 477 46 515 46

C539 46 550 46 553 47

C556 48 559 50 562 53

C567 58 567 58 597 58

C613 58 627 59 629 59

C630 60 632 59 636 56

C639 53 644 51 651 49

C660 46 660 46 710 46

C760 46 760 46 768 49

C773 50 777 52 778 53

L780 54

L785 50

C787 49 790 47 792 46

C794 46 811 46 830 46

C860 46 864 47 867 48

C871 50 871 50 879 48

C886 46 890 46 902 46

C915 46 917 46 924 49

C929 50 934 53 937 55

L942 58

L947 53

C950 50 953 48 956 47

C959 46 970 46 994 46

C1026 46 1028 46 1032 48

C1034 49 1038 52 1039 54

C1043 58 1043 58 1071 58

C1098 58 1100 58 1105 60

C1112 63 1118 69 1120 75

C1121 80 1121 82 1118 102

C1116 115 1113 127 1112 131

C1111 135 1110 139 1110 142

C1110 144 1108 159 1105 176

C1099 211 1097 222 1097 225

L1097 227

L1098 227

C1098 227 1102 224 1106 221

C1121 209 1132 204 1139 207

C1141 208 1143 210 1144 210

L1144 212

L1147 212

C1153 212 1160 214 1163 217

C1168 222 1169 227 1166 241

C1160 267 1155 299 1156 300

L1156 301

L1158 298

C1163 290 1183 271 1203 254

C1225 236 1261 214 1273 211

C1278 210 1290 212 1297 215

C1304 219 1308 232 1303 241

C1302 243 1299 247 1296 251

C1289 258 1284 260 1276 259

C1270 258 1267 254 1267 249

L1267 244

L1266 244

C1266 244 1262 246 1259 248

C1251 253 1244 260 1237 269

C1221 288 1215 297 1211 302

L1208 307

L1208 308

C1209 308 1210 308 1211 308

C1213 307 1234 293 1245 285

C1253 280 1262 273 1268 270

C1271 268 1273 268 1280 268

C1290 269 1293 270 1295 277

C1296 281 1296 281 1294 289

C1289 302 1279 319 1274 325

C1271 327 1262 343 1260 346

C1260 347 1258 349 1255 351

C1251 354 1250 355 1240 355

C1232 355 1230 354 1228 353

C1225 350 1223 345 1223 339

L1223 334

L1222 334

C1221 334 1216 335 1211 335

C1200 337 1179 338 1173 336

C1167 335 1161 332 1157 329

C1156 327 1154 326 1154 326

L1153 326

L1152 330

C1151 339 1131 354 1118 355

C1113 355 1113 355 1107 350

C1100 342 1099 337 1099 320

L1099 308

L1098 308

C1098 308 1093 309 1087 310

C1081 312 1074 313 1072 314

C1067 314 1067 314 1063 322

C1061 327 1058 332 1058 334

C1056 339 1049 346 1040 350

C1035 353 1032 354 1027 354

C1020 354 1020 353 1017 351

L1015 348

L1012 349

C1005 353 991 356 985 354

Z

"/>

<path fill="#ff0000" stroke="none" d="
M984 344

C980 341 979 334 981 326

C983 315 994 292 1011 265

C1015 258 1020 250 1021 248

C1022 246 1024 242 1025 241

L1026 238

L1026 237

L1025 237

L1018 242

C1005 250 992 261 980 272

C966 285 961 288 952 291

C944 294 938 294 935 291

C934 290 933 288 933 288

C933 287 933 286 932 286

L931 285

L928 292

C924 300 910 324 905 330

C903 332 901 336 900 338

C893 349 883 346 885 333

C887 319 897 298 915 267

C932 241 935 236 940 231

C947 225 948 225 963 228

C967 228 970 229 970 230

L971 231

L969 234

C967 237 965 246 962 257

C961 261 960 265 959 273

L958 276

L960 276

C961 276 966 273 977 263

C985 256 1012 236 1021 229

C1025 227 1031 223 1035 222

C1040 219 1042 219 1048 219

C1051 220 1055 220 1055 221

L1056 222

L1055 224

C1053 226 1049 236 1048 242

C1047 246 1043 258 1040 264

C1039 267 1034 275 1029 282

C1015 306 1013 312 1013 326

C1013 333 1013 334 1010 338

C1007 343 1006 344 1001 345

C992 348 987 348 984 344

Z

M1112 343

C1111 341 1109 338 1108 335

C1106 330 1106 316 1107 304

L1108 296

L1107 296

C1106 296 1103 297 1101 298

C1094 301 1081 304 1072 305

C1063 307 1063 307 1059 313

C1057 316 1054 322 1052 327

C1049 334 1048 336 1044 339

C1034 346 1025 348 1023 344

C1021 340 1025 326 1031 315

C1036 307 1045 294 1055 283

C1066 270 1105 232 1114 225

C1121 219 1132 214 1135 214

C1139 215 1137 218 1130 223

L1128 225

L1128 225

L1129 226

L1135 223

C1143 220 1151 219 1155 221

C1156 222 1158 224 1159 225

C1160 228 1160 231 1155 253

C1149 285 1146 303 1145 318

C1145 330 1145 330 1140 335

C1135 339 1122 347 1117 347

C1116 347 1114 346 1112 343

Z

M1094 287

C1102 285 1110 284 1110 283

C1111 283 1111 282 1111 281

C1111 278 1117 263 1120 257

C1121 254 1124 249 1126 245

C1128 242 1130 238 1131 237

L1131 235

L1129 235

C1126 237 1112 248 1102 256

C1094 264 1075 288 1075 290

L1075 291

L1077 291

C1078 290 1085 289 1094 287

Z

M1233 345

C1230 342 1230 330 1233 323

L1235 319

L1235 318

L1234 318

L1227 322

C1219 327 1214 328 1196 329

C1176 330 1167 328 1162 321

C1155 312 1166 297 1202 266

C1227 244 1263 221 1275 218

C1279 218 1290 220 1294 222

C1295 223 1296 226 1297 228

C1299 234 1297 238 1290 245

C1285 250 1279 252 1276 250

L1275 249

L1275 247

C1275 246 1275 242 1275 240

L1276 235

L1272 234

C1269 234 1266 235 1260 238

C1250 243 1236 256 1225 270

C1202 300 1197 307 1197 312

C1197 315 1201 318 1204 318

C1210 318 1228 308 1248 293

C1251 291 1258 286 1263 282

C1273 276 1274 276 1279 276

C1283 276 1285 276 1287 278

C1288 280 1288 280 1287 284

C1285 291 1274 311 1270 317

C1265 323 1259 331 1256 337

C1252 344 1248 347 1240 347

C1236 347 1234 347 1233 345

Z

M197 328

C197 327 198 322 198 318

C199 313 202 299 204 286

C206 273 210 251 212 236

C215 221 220 191 224 168

C228 145 232 122 233 117

C233 112 236 99 238 88

C239 77 241 67 241 67

C242 67 303 67 304 68

C304 68 303 74 302 81

C301 88 298 107 295 123

C289 157 285 183 282 199

C281 205 279 213 279 217

C278 220 278 225 277 229

C276 232 276 237 275 240

C275 243 273 252 272 260

C270 268 269 276 269 276

L269 278

L346 278

C388 278 423 278 423 279

C424 280 423 285 419 309

C417 319 416 327 416 328

C415 329 375 329 306 329

L198 329

L197 328

Z

M696 328

C683 326 676 319 677 308

C678 304 681 285 684 266

C695 203 696 195 696 193

L695 192

L689 192

L682 192

L682 192

C682 192 679 209 676 229

L669 266

L639 266

C622 266 607 266 607 265

C607 265 608 252 611 236

C614 220 616 205 617 202

C618 192 625 154 626 149

C627 146 628 137 629 129

C636 85 637 82 644 76

C646 74 650 71 653 70

C659 68 659 68 711 68

C764 68 764 68 768 70

C770 72 774 74 775 77

C777 80 777 81 777 89

C776 94 776 100 775 103

C775 106 773 115 772 124

C770 132 767 149 765 162

C763 175 761 188 760 191

C760 193 758 203 756 212

C755 220 752 239 750 252

C747 266 746 277 746 278

C746 278 780 278 822 278

C872 278 897 278 898 279

C898 280 897 282 895 285

C890 295 883 309 880 318

C879 322 877 327 877 328

C876 329 857 329 789 329

C741 329 699 328 696 328

Z

M705 138

C707 132 709 119 708 118

C708 117 705 117 702 117

L695 117

L695 119

C694 121 691 137 691 139

L691 141

L698 141

L705 141

L705 138

Z

M286 265

C285 265 285 264 285 263

C286 262 288 251 290 238

C292 225 296 204 298 191

C300 177 303 164 303 161

C303 158 306 145 308 132

C310 119 313 104 314 99

C314 94 316 88 317 85

C319 79 325 73 332 70

C338 68 338 68 390 68

C443 68 443 68 447 70

C456 76 458 81 455 98

C453 113 449 130 443 172

C440 189 435 216 432 231

C430 245 428 259 427 262

L427 266

L395 266

L363 266

L363 264

C364 260 374 202 375 197

L375 192

L368 192

L362 193

L361 195

C360 198 359 205 351 250

L349 266

L318 266

C296 266 287 266 286 265

Z

M386 131

C387 125 388 120 388 119

L388 117

L381 117

L374 117

L374 119

C373 122 371 133 370 137

L370 141

L377 141

L384 141

L386 131

Z

M50 266

C50 266 50 263 51 260

C52 256 52 251 53 248

C53 245 56 232 58 219

C60 206 64 185 66 172

C68 159 72 138 74 125

C76 111 79 93 81 84

L84 68

L145 68

C207 68 207 68 211 70

C217 73 220 78 221 84

C221 87 220 96 218 107

C216 116 214 131 213 139

C211 146 210 153 209 155

C208 159 205 162 201 164

L197 166

L201 170

C205 173 205 173 205 179

C205 183 204 189 203 194

C203 198 202 204 201 208

C198 229 194 247 192 250

C189 257 184 261 177 264

C170 266 169 266 110 266

L50 266

L50 266

Z

M139 203

C140 196 141 190 141 189

L141 187

L134 187

L127 187

L127 189

C126 191 122 214 122 215

L122 216

L129 216

L136 216

L139 203

Z

M151 132

C152 125 153 118 152 118

C152 117 148 117 145 117

L139 118

L136 131

C135 138 134 145 134 146

L135 147

L142 146

L148 146

L151 132

Z

M465 263

C462 262 459 259 457 257

C455 254 455 253 455 245

C456 237 459 215 466 174

C471 149 474 130 473 130

C473 129 470 129 467 129

C463 129 460 129 460 128

C459 127 465 89 467 83

L468 80

L475 79

L482 79

L484 73

L485 68

L515 67

C533 67 546 67 547 67

L548 68

L548 70

C547 71 547 73 547 75

L547 79

L585 79

L623 80

L622 85

C622 89 617 123 615 127

L615 129

L576 129

L538 130

L537 133

C536 135 536 139 535 143

C535 146 532 163 529 181

C526 199 523 214 523 215

L523 216

L530 216

L537 216

L537 214

C538 213 547 161 549 148

C549 146 550 143 550 142

C551 141 612 140 612 142

C613 142 612 150 610 158

C606 183 604 195 602 207

C599 223 596 241 595 245

C593 253 587 260 578 264

C572 266 570 266 521 266

C471 266 471 266 465 263

Z

M763 265

C762 265 764 251 767 235

C770 219 772 203 773 200

C773 197 775 190 775 186

C776 181 780 158 784 136

C788 113 792 90 793 86

C793 81 794 75 795 72

C795 70 796 68 796 67

C798 66 857 67 858 68

C859 68 859 70 858 72

C858 75 857 77 858 77

L858 78

L861 76

C874 69 895 65 912 67

C922 68 928 71 931 77

C934 83 933 90 929 114

C927 123 925 136 924 143

C922 156 916 193 911 219

C909 229 908 239 907 243

C906 247 905 253 905 258

C904 262 903 266 903 266

L903 266

L872 266

L840 266

L840 265

C840 265 840 262 841 259

C841 256 845 238 848 218

C851 198 856 168 859 151

C862 133 864 118 864 118

C864 117 860 117 857 117

L851 118

L849 127

C848 132 846 145 844 155

C842 165 840 176 840 179

C839 181 838 190 837 199

C832 224 826 261 825 264

L825 266

L794 266

C777 266 763 266 763 265

Z

M1050 264

C1050 263 1051 259 1052 256

C1054 252 1055 247 1056 244

C1057 237 1060 231 1063 228

C1065 224 1066 222 1063 218

C1061 213 1057 212 1046 212

C1037 212 1036 212 1030 215

C1021 219 1005 230 979 250

C976 253 973 255 972 255

L971 255

L971 253

C972 252 973 249 973 247

C974 244 975 241 977 238

C982 230 979 223 969 221

C966 220 962 219 959 219

C951 217 945 218 941 221

C939 222 937 223 936 223

L935 223

L935 221

C935 219 935 216 936 213

C937 211 938 204 939 199

C939 194 941 182 943 172

C945 162 947 152 947 149

C947 146 948 141 949 137

C950 134 950 130 949 130

C949 129 946 129 943 129

C939 129 936 129 936 128

C935 128 937 119 939 108

C940 97 942 87 943 84

L943 80

L946 80

C948 80 952 80 954 79

L959 79

L960 73

L961 67

L963 67

C964 67 978 67 994 67

L1024 67

L1023 73

L1023 79

L1061 79

C1082 79 1099 79 1099 80

C1100 80 1100 83 1099 86

C1094 113 1092 128 1091 128

C1091 129 1074 129 1052 129

L1014 129

L1014 131

C1012 136 1011 146 1006 177

C1003 195 1000 211 999 213

L999 216

L1006 216

L1014 216

L1014 212

C1015 210 1015 207 1016 206

C1016 204 1018 189 1021 173

C1024 157 1026 143 1026 142

L1027 141

L1058 141

L1088 141

L1089 142

C1089 143 1088 148 1088 153

C1087 158 1085 165 1085 168

C1084 173 1078 207 1074 234

C1073 240 1071 247 1070 249

C1067 256 1061 262 1054 264

L1051 265

L1050 264

Z

"/>

<path fill="#00ff00" stroke="none" d="
M984 344

C980 341 979 334 981 326

C983 315 994 292 1011 265

C1015 258 1020 250 1021 248

C1022 246 1024 242 1025 241

L1026 238

L1026 237

L1025 237

L1018 242

C1005 250 992 261 980 272

C966 285 961 288 952 291

C944 294 938 294 935 291

C934 290 933 288 933 288

C933 287 933 286 932 286

L931 285

L928 292

C924 300 910 324 905 330

C903 332 901 336 900 338

C893 349 883 346 885 333

C887 319 897 298 915 267

C932 241 935 236 940 231

C947 225 948 225 963 228

C967 228 970 229 970 230

L971 231

L969 234

C967 237 965 246 962 257

C961 261 960 265 959 273

L958 276

L960 276

C961 276 966 273 977 263

C985 256 1012 236 1021 229

C1025 227 1031 223 1035 222

C1040 219 1042 219 1048 219

C1051 220 1055 220 1055 221

L1056 222

L1055 224

C1053 226 1049 236 1048 242

C1047 246 1043 258 1040 264

C1039 267 1034 275 1029 282

C1015 306 1013 312 1013 326

C1013 333 1013 334 1010 338

C1007 343 1006 344 1001 345

C992 348 987 348 984 344

Z

M1112 343

C1111 341 1109 338 1108 335

C1106 330 1106 316 1107 304

L1108 296

L1107 296

C1106 296 1103 297 1101 298

C1094 301 1081 304 1072 305

C1063 307 1063 307 1059 313

C1057 316 1054 322 1052 327

C1049 334 1048 336 1044 339

C1034 346 1025 348 1023 344

C1021 340 1025 326 1031 315

C1036 307 1045 294 1055 283

C1066 270 1105 232 1114 225

C1121 219 1132 214 1135 214

C1139 215 1137 218 1130 223

L1128 225

L1128 225

L1129 226

L1135 223

C1143 220 1151 219 1155 221

C1156 222 1158 224 1159 225

C1160 228 1160 231 1155 253

C1149 285 1146 303 1145 318

C1145 330 1145 330 1140 335

C1135 339 1122 347 1117 347

C1116 347 1114 346 1112 343

Z

M1094 287

C1102 285 1110 284 1110 283

C1111 283 1111 282 1111 281

C1111 278 1117 263 1120 257

C1121 254 1124 249 1126 245

C1128 242 1130 238 1131 237

L1131 235

L1129 235

C1126 237 1112 248 1102 256

C1094 264 1075 288 1075 290

L1075 291

L1077 291

C1078 290 1085 289 1094 287

Z

M1233 345

C1230 342 1230 330 1233 323

L1235 319

L1235 318

L1234 318

L1227 322

C1219 327 1214 328 1196 329

C1176 330 1167 328 1162 321

C1155 312 1166 297 1202 266

C1227 244 1263 221 1275 218

C1279 218 1290 220 1294 222

C1295 223 1296 226 1297 228

C1299 234 1297 238 1290 245

C1285 250 1279 252 1276 250

L1275 249

L1275 247

C1275 246 1275 242 1275 240

L1276 235

L1272 234

C1269 234 1266 235 1260 238

C1250 243 1236 256 1225 270

C1202 300 1197 307 1197 312

C1197 315 1201 318 1204 318

C1210 318 1228 308 1248 293

C1251 291 1258 286 1263 282

C1273 276 1274 276 1279 276

C1283 276 1285 276 1287 278

C1288 280 1288 280 1287 284

C1285 291 1274 311 1270 317

C1265 323 1259 331 1256 337

C1252 344 1248 347 1240 347

C1236 347 1234 347 1233 345

Z

M197 328

C197 327 198 322 198 318

C199 313 202 299 204 286

C206 273 210 251 212 236

C215 221 220 191 224 168

C228 145 232 122 233 117

C233 112 236 99 238 88

C239 77 241 67 241 67

C242 67 303 67 304 68

C304 68 303 74 302 81

C301 88 298 107 295 123

C289 157 285 183 282 199

C281 205 279 213 279 217

C278 220 278 225 277 229

C276 232 276 237 275 240

C275 243 273 252 272 260

C270 268 269 276 269 276

L269 278

L346 278

C388 278 423 278 423 279

C424 280 423 285 419 309

C417 319 416 327 416 328

C415 329 375 329 306 329

L198 329

L197 328

Z

M696 328

C683 326 676 319 677 308

C678 304 681 285 684 266

C695 203 696 195 696 193

L695 192

L689 192

L682 192

L682 192

C682 192 679 209 676 229

L669 266

L639 266

C622 266 607 266 607 265

C607 265 608 252 611 236

C614 220 616 205 617 202

C618 192 625 154 626 149

C627 146 628 137 629 129

C636 85 637 82 644 76

C646 74 650 71 653 70

C659 68 659 68 711 68

C764 68 764 68 768 70

C770 72 774 74 775 77

C777 80 777 81 777 89

C776 94 776 100 775 103

C775 106 773 115 772 124

C770 132 767 149 765 162

C763 175 761 188 760 191

C760 193 758 203 756 212

C755 220 752 239 750 252

C747 266 746 277 746 278

C746 278 780 278 822 278

C872 278 897 278 898 279

C898 280 897 282 895 285

C890 295 883 309 880 318

C879 322 877 327 877 328

C876 329 857 329 789 329

C741 329 699 328 696 328

Z

M705 138

C707 132 709 119 708 118

C708 117 705 117 702 117

L695 117

L695 119

C694 121 691 137 691 139

L691 141

L698 141

L705 141

L705 138

Z

M286 265

C285 265 285 264 285 263

C286 262 288 251 290 238

C292 225 296 204 298 191

C300 177 303 164 303 161

C303 158 306 145 308 132

C310 119 313 104 314 99

C314 94 316 88 317 85

C319 79 325 73 332 70

C338 68 338 68 390 68

C443 68 443 68 447 70

C456 76 458 81 455 98

C453 113 449 130 443 172

C440 189 435 216 432 231

C430 245 428 259 427 262

L427 266

L395 266

L363 266

L363 264

C364 260 374 202 375 197

L375 192

L368 192

L362 193

L361 195

C360 198 359 205 351 250

L349 266

L318 266

C296 266 287 266 286 265

Z

M386 131

C387 125 388 120 388 119

L388 117

L381 117

L374 117

L374 119

C373 122 371 133 370 137

L370 141

L377 141

L384 141

L386 131

Z

M50 266

C50 266 50 263 51 260

C52 256 52 251 53 248

C53 245 56 232 58 219

C60 206 64 185 66 172

C68 159 72 138 74 125

C76 111 79 93 81 84

L84 68

L145 68

C207 68 207 68 211 70

C217 73 220 78 221 84

C221 87 220 96 218 107

C216 116 214 131 213 139

C211 146 210 153 209 155

C208 159 205 162 201 164

L197 166

L201 170

C205 173 205 173 205 179

C205 183 204 189 203 194

C203 198 202 204 201 208

C198 229 194 247 192 250

C189 257 184 261 177 264

C170 266 169 266 110 266

L50 266

L50 266

Z

M139 203

C140 196 141 190 141 189

L141 187

L134 187

L127 187

L127 189

C126 191 122 214 122 215

L122 216

L129 216

L136 216

L139 203

Z

M151 132

C152 125 153 118 152 118

C152 117 148 117 145 117

L139 118

L136 131

C135 138 134 145 134 146

L135 147

L142 146

L148 146

L151 132

Z

M465 263

C462 262 459 259 457 257

C455 254 455 253 455 245

C456 237 459 215 466 174

C471 149 474 130 473 130

C473 129 470 129 467 129

C463 129 460 129 460 128

C459 127 465 89 467 83

L468 80

L475 79

L482 79

L484 73

L485 68

L515 67

C533 67 546 67 547 67

L548 68

L548 70

C547 71 547 73 547 75

L547 79

L585 79

L623 80

L622 85

C622 89 617 123 615 127

L615 129

L576 129

L538 130

L537 133

C536 135 536 139 535 143

C535 146 532 163 529 181

C526 199 523 214 523 215

L523 216

L530 216

L537 216

L537 214

C538 213 547 161 549 148

C549 146 550 143 550 142

C551 141 612 140 612 142

C613 142 612 150 610 158

C606 183 604 195 602 207

C599 223 596 241 595 245

C593 253 587 260 578 264

C572 266 570 266 521 266

C471 266 471 266 465 263

Z

M763 265

C762 265 764 251 767 235

C770 219 772 203 773 200

C773 197 775 190 775 186

C776 181 780 158 784 136

C788 113 792 90 793 86

C793 81 794 75 795 72

C795 70 796 68 796 67

C798 66 857 67 858 68

C859 68 859 70 858 72

C858 75 857 77 858 77

L858 78

L861 76

C874 69 895 65 912 67

C922 68 928 71 931 77

C934 83 933 90 929 114

C927 123 925 136 924 143

C922 156 916 193 911 219

C909 229 908 239 907 243

C906 247 905 253 905 258

C904 262 903 266 903 266

L903 266

L872 266

L840 266

L840 265

C840 265 840 262 841 259

C841 256 845 238 848 218

C851 198 856 168 859 151

C862 133 864 118 864 118

C864 117 860 117 857 117

L851 118

L849 127

C848 132 846 145 844 155

C842 165 840 176 840 179

C839 181 838 190 837 199

C832 224 826 261 825 264

L825 266

L794 266

C777 266 763 266 763 265

Z

M1050 264

C1050 263 1051 259 1052 256

C1054 252 1055 247 1056 244

C1057 237 1060 231 1063 228

C1065 224 1066 222 1063 218

C1061 213 1057 212 1046 212

C1037 212 1036 212 1030 215

C1021 219 1005 230 979 250

C976 253 973 255 972 255

L971 255

L971 253

C972 252 973 249 973 247

C974 244 975 241 977 238

C982 230 979 223 969 221

C966 220 962 219 959 219

C951 217 945 218 941 221

C939 222 937 223 936 223

L935 223

L935 221

C935 219 935 216 936 213

C937 211 938 204 939 199

C939 194 941 182 943 172

C945 162 947 152 947 149

C947 146 948 141 949 137

C950 134 950 130 949 130

C949 129 946 129 943 129

C939 129 936 129 936 128

C935 128 937 119 939 108

C940 97 942 87 943 84

L943 80

L946 80

C948 80 952 80 954 79

L959 79

L960 73

L961 67

L963 67

C964 67 978 67 994 67

L1024 67

L1023 73

L1023 79

L1061 79

C1082 79 1099 79 1099 80

C1100 80 1100 83 1099 86

C1094 113 1092 128 1091 128

C1091 129 1074 129 1052 129

L1014 129

L1014 131

C1012 136 1011 146 1006 177

C1003 195 1000 211 999 213

L999 216

L1006 216

L1014 216

L1014 212

C1015 210 1015 207 1016 206

C1016 204 1018 189 1021 173

C1024 157 1026 143 1026 142

L1027 141

L1058 141

L1088 141

L1089 142

C1089 143 1088 148 1088 153

C1087 158 1085 165 1085 168

C1084 173 1078 207 1074 234

C1073 240 1071 247 1070 249

C1067 256 1061 262 1054 264

L1051 265

L1050 264

Z

"/>

<path fill="#286ae6" stroke="none" d="
M984 344

C980 341 979 334 981 326

C983 315 994 292 1011 265

C1015 258 1020 250 1021 248

C1022 246 1024 242 1025 241

L1026 238

L1026 237

L1025 237

L1018 242

C1005 250 992 261 980 272

C966 285 961 288 952 291

C944 294 938 294 935 291

C934 290 933 288 933 288

C933 287 933 286 932 286

L931 285

L928 292

C924 300 910 324 905 330

C903 332 901 336 900 338

C893 349 883 346 885 333

C887 319 897 298 915 267

C932 241 935 236 940 231

C947 225 948 225 963 228

C967 228 970 229 970 230

L971 231

L969 234

C967 237 965 246 962 257

C961 261 960 265 959 273

L958 276

L960 276

C961 276 966 273 977 263

C985 256 1012 236 1021 229

C1025 227 1031 223 1035 222

C1040 219 1042 219 1048 219

C1051 220 1055 220 1055 221

L1056 222

L1055 224

C1053 226 1049 236 1048 242

C1047 246 1043 258 1040 264

C1039 267 1034 275 1029 282

C1015 306 1013 312 1013 326

C1013 333 1013 334 1010 338

C1007 343 1006 344 1001 345

C992 348 987 348 984 344

Z

M1112 343

C1111 341 1109 338 1108 335

C1106 330 1106 316 1107 304

L1108 296

L1107 296

C1106 296 1103 297 1101 298

C1094 301 1081 304 1072 305

C1063 307 1063 307 1059 313

C1057 316 1054 322 1052 327

C1049 334 1048 336 1044 339

C1034 346 1025 348 1023 344

C1021 340 1025 326 1031 315

C1036 307 1045 294 1055 283

C1066 270 1105 232 1114 225

C1121 219 1132 214 1135 214

C1139 215 1137 218 1130 223

L1128 225

L1128 225

L1129 226

L1135 223

C1143 220 1151 219 1155 221

C1156 222 1158 224 1159 225

C1160 228 1160 231 1155 253

C1149 285 1146 303 1145 318

C1145 330 1145 330 1140 335

C1135 339 1122 347 1117 347

C1116 347 1114 346 1112 343

Z

M1094 287

C1102 285 1110 284 1110 283

C1111 283 1111 282 1111 281

C1111 278 1117 263 1120 257

C1121 254 1124 249 1126 245

C1128 242 1130 238 1131 237

L1131 235

L1129 235

C1126 237 1112 248 1102 256

C1094 264 1075 288 1075 290

L1075 291

L1077 291

C1078 290 1085 289 1094 287

Z

M1233 345

C1230 342 1230 330 1233 323

L1235 319

L1235 318

L1234 318

L1227 322

C1219 327 1214 328 1196 329

C1176 330 1167 328 1162 321

C1155 312 1166 297 1202 266

C1227 244 1263 221 1275 218

C1279 218 1290 220 1294 222

C1295 223 1296 226 1297 228

C1299 234 1297 238 1290 245

C1285 250 1279 252 1276 250

L1275 249

L1275 247

C1275 246 1275 242 1275 240

L1276 235

L1272 234

C1269 234 1266 235 1260 238

C1250 243 1236 256 1225 270

C1202 300 1197 307 1197 312

C1197 315 1201 318 1204 318

C1210 318 1228 308 1248 293

C1251 291 1258 286 1263 282

C1273 276 1274 276 1279 276

C1283 276 1285 276 1287 278

C1288 280 1288 280 1287 284

C1285 291 1274 311 1270 317

C1265 323 1259 331 1256 337

C1252 344 1248 347 1240 347

C1236 347 1234 347 1233 345

Z

M197 328

C197 327 198 322 198 318

C199 313 202 299 204 286

C206 273 210 251 212 236

C215 221 220 191 224 168

C228 145 232 122 233 117

C233 112 236 99 238 88

C239 77 241 67 241 67

C242 67 303 67 304 68

C304 68 303 74 302 81

C301 88 298 107 295 123

C289 157 285 183 282 199

C281 205 279 213 279 217

C278 220 278 225 277 229

C276 232 276 237 275 240

C275 243 273 252 272 260

C270 268 269 276 269 276

L269 278

L346 278

C388 278 423 278 423 279

C424 280 423 285 419 309

C417 319 416 327 416 328

C415 329 375 329 306 329

L198 329

L197 328

Z

M696 328

C683 326 676 319 677 308

C678 304 681 285 684 266

C695 203 696 195 696 193

L695 192

L689 192

L682 192

L682 192

C682 192 679 209 676 229

L669 266

L639 266

C622 266 607 266 607 265

C607 265 608 252 611 236

C614 220 616 205 617 202

C618 192 625 154 626 149

C627 146 628 137 629 129

C636 85 637 82 644 76

C646 74 650 71 653 70

C659 68 659 68 711 68

C764 68 764 68 768 70

C770 72 774 74 775 77

C777 80 777 81 777 89

C776 94 776 100 775 103

C775 106 773 115 772 124

C770 132 767 149 765 162

C763 175 761 188 760 191

C760 193 758 203 756 212

C755 220 752 239 750 252

C747 266 746 277 746 278

C746 278 780 278 822 278

C872 278 897 278 898 279

C898 280 897 282 895 285

C890 295 883 309 880 318

C879 322 877 327 877 328

C876 329 857 329 789 329

C741 329 699 328 696 328

Z

M705 138

C707 132 709 119 708 118

C708 117 705 117 702 117

L695 117

L695 119

C694 121 691 137 691 139

L691 141

L698 141

L705 141

L705 138

Z

M286 265

C285 265 285 264 285 263

C286 262 288 251 290 238

C292 225 296 204 298 191

C300 177 303 164 303 161

C303 158 306 145 308 132

C310 119 313 104 314 99

C314 94 316 88 317 85

C319 79 325 73 332 70

C338 68 338 68 390 68

C443 68 443 68 447 70

C456 76 458 81 455 98

C453 113 449 130 443 172

C440 189 435 216 432 231

C430 245 428 259 427 262

L427 266

L395 266

L363 266

L363 264

C364 260 374 202 375 197

L375 192

L368 192

L362 193

L361 195

C360 198 359 205 351 250

L349 266

L318 266

C296 266 287 266 286 265

Z

M386 131

C387 125 388 120 388 119

L388 117

L381 117

L374 117

L374 119

C373 122 371 133 370 137

L370 141

L377 141

L384 141

L386 131

Z

M50 266

C50 266 50 263 51 260

C52 256 52 251 53 248

C53 245 56 232 58 219

C60 206 64 185 66 172

C68 159 72 138 74 125

C76 111 79 93 81 84

L84 68

L145 68

C207 68 207 68 211 70

C217 73 220 78 221 84

C221 87 220 96 218 107

C216 116 214 131 213 139

C211 146 210 153 209 155

C208 159 205 162 201 164

L197 166

L201 170

C205 173 205 173 205 179

C205 183 204 189 203 194

C203 198 202 204 201 208

C198 229 194 247 192 250

C189 257 184 261 177 264

C170 266 169 266 110 266

L50 266

L50 266

Z

M139 203

C140 196 141 190 141 189

L141 187

L134 187

L127 187

L127 189

C126 191 122 214 122 215

L122 216

L129 216

L136 216

L139 203

Z

M151 132

C152 125 153 118 152 118

C152 117 148 117 145 117

L139 118

L136 131

C135 138 134 145 134 146

L135 147

L142 146

L148 146

L151 132

Z

M465 263

C462 262 459 259 457 257

C455 254 455 253 455 245

C456 237 459 215 466 174

C471 149 474 130 473 130

C473 129 470 129 467 129

C463 129 460 129 460 128

C459 127 465 89 467 83

L468 80

L475 79

L482 79

L484 73

L485 68

L515 67

C533 67 546 67 547 67

L548 68

L548 70

C547 71 547 73 547 75

L547 79

L585 79

L623 80

L622 85

C622 89 617 123 615 127

L615 129

L576 129

L538 130

L537 133

C536 135 536 139 535 143

C535 146 532 163 529 181

C526 199 523 214 523 215

L523 216

L530 216

L537 216

L537 214

C538 213 547 161 549 148

C549 146 550 143 550 142

C551 141 612 140 612 142

C613 142 612 150 610 158

C606 183 604 195 602 207

C599 223 596 241 595 245

C593 253 587 260 578 264

C572 266 570 266 521 266

C471 266 471 266 465 263

Z

M763 265

C762 265 764 251 767 235

C770 219 772 203 773 200

C773 197 775 190 775 186

C776 181 780 158 784 136

C788 113 792 90 793 86

C793 81 794 75 795 72

C795 70 796 68 796 67

C798 66 857 67 858 68

C859 68 859 70 858 72

C858 75 857 77 858 77

L858 78

L861 76

C874 69 895 65 912 67

C922 68 928 71 931 77

C934 83 933 90 929 114

C927 123 925 136 924 143

C922 156 916 193 911 219

C909 229 908 239 907 243

C906 247 905 253 905 258

C904 262 903 266 903 266

L903 266

L872 266

L840 266

L840 265

C840 265 840 262 841 259

C841 256 845 238 848 218

C851 198 856 168 859 151

C862 133 864 118 864 118

C864 117 860 117 857 117

L851 118

L849 127

C848 132 846 145 844 155

C842 165 840 176 840 179

C839 181 838 190 837 199

C832 224 826 261 825 264

L825 266

L794 266

C777 266 763 266 763 265

Z

M1050 264

C1050 263 1051 259 1052 256

C1054 252 1055 247 1056 244

C1057 237 1060 231 1063 228

C1065 224 1066 222 1063 218

C1061 213 1057 212 1046 212

C1037 212 1036 212 1030 215

C1021 219 1005 230 979 250

C976 253 973 255 972 255

L971 255

L971 253

C972 252 973 249 973 247

C974 244 975 241 977 238

C982 230 979 223 969 221

C966 220 962 219 959 219

C951 217 945 218 941 221

C939 222 937 223 936 223

L935 223

L935 221

C935 219 935 216 936 213

C937 211 938 204 939 199

C939 194 941 182 943 172

C945 162 947 152 947 149

C947 146 948 141 949 137

C950 134 950 130 949 130

C949 129 946 129 943 129

C939 129 936 129 936 128

C935 128 937 119 939 108

C940 97 942 87 943 84

L943 80

L946 80

C948 80 952 80 954 79

L959 79

L960 73

L961 67

L963 67

C964 67 978 67 994 67

L1024 67

L1023 73

L1023 79

L1061 79

C1082 79 1099 79 1099 80

C1100 80 1100 83 1099 86

C1094 113 1092 128 1091 128

C1091 129 1074 129 1052 129

L1014 129

L1014 131

C1012 136 1011 146 1006 177

C1003 195 1000 211 999 213

L999 216

L1006 216

L1014 216

L1014 212

C1015 210 1015 207 1016 206

C1016 204 1018 189 1021 173

C1024 157 1026 143 1026 142

L1027 141

L1058 141

L1088 141

L1089 142

C1089 143 1088 148 1088 153

C1087 158 1085 165 1085 168

C1084 173 1078 207 1074 234

C1073 240 1071 247 1070 249

C1067 256 1061 262 1054 264

L1051 265

L1050 264

Z

"/>

<path fill="#f9de05" stroke="none" d="
M197 328

C197 327 198 322 198 318

C199 313 202 299 204 286

C206 273 210 251 212 236

C215 221 220 191 224 168

C228 145 232 122 233 117

C233 112 236 99 238 88

C239 77 241 67 241 67

C242 67 303 67 304 68

C304 68 303 74 302 81

C301 88 298 107 295 123

C289 157 285 183 282 199

C281 205 279 213 279 217

C278 220 278 225 277 229

C276 232 276 237 275 240

C275 243 273 252 272 260

C270 268 269 276 269 276

L269 278

L346 278

C388 278 423 278 423 279

C424 280 423 285 419 309

C417 319 416 327 416 328

C415 329 375 329 306 329

L198 329

L197 328

Z

M696 328

C683 326 676 319 677 308

C678 304 681 285 684 266

C695 203 696 195 696 193

L695 192

L689 192

L682 192

L682 192

C682 192 679 209 676 229

L669 266

L639 266

C622 266 607 266 607 265

C607 265 608 252 611 236

C614 220 616 205 617 202

C618 192 625 154 626 149

C627 146 628 137 629 129

C636 85 637 82 644 76

C646 74 650 71 653 70

C659 68 659 68 711 68

C764 68 764 68 768 70

C770 72 774 74 775 77

C777 80 777 81 777 89

C776 94 776 100 775 103

C775 106 773 115 772 124

C770 132 767 149 765 162

C763 175 761 188 760 191

C760 193 758 203 756 212

C755 220 752 239 750 252

C747 266 746 277 746 278

C746 278 780 278 822 278

C872 278 897 278 898 279

C898 280 897 282 895 285

C890 295 883 309 880 318

C879 322 877 327 877 328

C876 329 857 329 789 329

C741 329 699 328 696 328

Z

M705 138

C707 132 709 119 708 118

C708 117 705 117 702 117

L695 117

L695 119

C694 121 691 137 691 139

L691 141

L698 141

L705 141

L705 138

Z

M286 265

C285 265 285 264 285 263

C286 262 288 251 290 238

C292 225 296 204 298 191

C300 177 303 164 303 161

C303 158 306 145 308 132

C310 119 313 104 314 99

C314 94 316 88 317 85

C319 79 325 73 332 70

C338 68 338 68 390 68

C443 68 443 68 447 70

C456 76 458 81 455 98

C453 113 449 130 443 172

C440 189 435 216 432 231

C430 245 428 259 427 262

L427 266

L395 266

L363 266

L363 264

C364 260 374 202 375 197

L375 192

L368 192

L362 193

L361 195

C360 198 359 205 351 250

L349 266

L318 266

C296 266 287 266 286 265

Z

M386 131

C387 125 388 120 388 119

L388 117

L381 117

L374 117

L374 119

C373 122 371 133 370 137

L370 141

L377 141

L384 141

L386 131

Z

M50 266

C50 266 50 263 51 260

C52 256 52 251 53 248

C53 245 56 232 58 219

C60 206 64 185 66 172

C68 159 72 138 74 125

C76 111 79 93 81 84

L84 68

L145 68

C207 68 207 68 211 70

C217 73 220 78 221 84

C221 87 220 96 218 107

C216 116 214 131 213 139

C211 146 210 153 209 155

C208 159 205 162 201 164

L197 166

L201 170

C205 173 205 173 205 179

C205 183 204 189 203 194

C203 198 202 204 201 208

C198 229 194 247 192 250

C189 257 184 261 177 264

C170 266 169 266 110 266

L50 266

L50 266

Z

M139 203

C140 196 141 190 141 189

L141 187

L134 187

L127 187

L127 189

C126 191 122 214 122 215

L122 216

L129 216

L136 216

L139 203

Z

M151 132

C152 125 153 118 152 118

C152 117 148 117 145 117

L139 118

L136 131

C135 138 134 145 134 146

L135 147

L142 146

L148 146

L151 132

Z

M465 263

C462 262 459 259 457 257

C455 254 455 253 455 245

C456 237 459 215 466 174

C471 149 474 130 473 130

C473 129 470 129 467 129

C463 129 460 129 460 128

C459 127 465 89 467 83

L468 80

L475 79

L482 79

L484 73

L485 68

L515 67

C533 67 546 67 547 67

L548 68

L548 70

C547 71 547 73 547 75

L547 79

L585 79

L623 80

L622 85

C622 89 617 123 615 127

L615 129

L576 129

L538 130

L537 133

C536 135 536 139 535 143

C535 146 532 163 529 181

C526 199 523 214 523 215

L523 216

L530 216

L537 216

L537 214

C538 213 547 161 549 148

C549 146 550 143 550 142

C551 141 612 140 612 142

C613 142 612 150 610 158

C606 183 604 195 602 207

C599 223 596 241 595 245

C593 253 587 260 578 264

C572 266 570 266 521 266

C471 266 471 266 465 263

Z

M763 265

C762 265 764 251 767 235

C770 219 772 203 773 200

C773 197 775 190 775 186

C776 181 780 158 784 136

C788 113 792 90 793 86

C793 81 794 75 795 72

C795 70 796 68 796 67

C798 66 857 67 858 68

C859 68 859 70 858 72

C858 75 857 77 858 77

L858 78

L861 76

C874 69 895 65 912 67

C922 68 928 71 931 77

C934 83 933 90 929 114

C927 123 925 136 924 143

C922 156 916 193 911 219

C909 229 908 239 907 243

C906 247 905 253 905 258

C904 262 903 266 903 266

L903 266

L872 266

L840 266

L840 265

C840 265 840 262 841 259

C841 256 845 238 848 218

C851 198 856 168 859 151

C862 133 864 118 864 118

C864 117 860 117 857 117

L851 118

L849 127

C848 132 846 145 844 155

C842 165 840 176 840 179

C839 181 838 190 837 199

C832 224 826 261 825 264

L825 266

L794 266

C777 266 763 266 763 265

Z

M1050 264

C1050 263 1051 259 1052 256

C1054 252 1055 247 1056 244

C1057 237 1060 231 1063 228

C1065 224 1066 222 1063 218

C1061 213 1057 212 1046 212

C1037 212 1036 212 1030 215

C1021 219 1005 230 979 250

C976 253 973 255 972 255

L971 255

L971 253

C972 252 973 249 973 247

C974 244 975 241 977 238

C982 230 979 223 969 221

C966 220 962 219 959 219

C951 217 945 218 941 221

C939 222 937 223 936 223

L935 223

L935 221

C935 219 935 216 936 213

C937 211 938 204 939 199

C939 194 941 182 943 172

C945 162 947 152 947 149

C947 146 948 141 949 137

C950 134 950 130 949 130

C949 129 946 129 943 129

C939 129 936 129 936 128

C935 128 937 119 939 108

C940 97 942 87 943 84

L943 80

L946 80

C948 80 952 80 954 79

L959 79

L960 73

L961 67

L963 67

C964 67 978 67 994 67

L1024 67

L1023 73

L1023 79

L1061 79

C1082 79 1099 79 1099 80

C1100 80 1100 83 1099 86

C1094 113 1092 128 1091 128

C1091 129 1074 129 1052 129

L1014 129

L1014 131

C1012 136 1011 146 1006 177

C1003 195 1000 211 999 213

L999 216

L1006 216

L1014 216

L1014 212

C1015 210 1015 207 1016 206

C1016 204 1018 189 1021 173

C1024 157 1026 143 1026 142

L1027 141

L1058 141

L1088 141

L1089 142

C1089 143 1088 148 1088 153

C1087 158 1085 165 1085 168

C1084 173 1078 207 1074 234

C1073 240 1071 247 1070 249

C1067 256 1061 262 1054 264

L1051 265

L1050 264

Z

"/>

<path fill="#00ffff" stroke="none" d="
"/>

<path fill="#ffffff" stroke="none" d="
"/>

<path fill="#ffffff" stroke="none" d="
"/>

</svg>

