<?xml version="1.0" standalone="no"?>

<!DOCTYPE svg PUBLIC "-//W3C//DTD SVG 20010904//EN"

 "http://www.w3.org/TR/2001/REC-SVG-20010904/DTD/svg10.dtd">

<svg version="1.0" xmlns="http://www.w3.org/2000/svg"

 width="1289.000000pt" height="320.000000pt" viewBox="0 0 1289.000000 320.000000"

 preserveAspectRatio="xMidYMid meet">

<path fill="#030203" stroke="none" d="
M963 315

C959 314 955 311 953 306

C951 302 951 300 951 292

C951 282 953 276 961 259

C963 255 965 251 965 250

L965 249

L959 249

C953 249 952 249 947 253

C939 259 930 261 920 262

C911 262 911 262 901 278

C895 286 890 295 890 296

C887 301 880 310 877 311

C872 314 867 314 863 313

C860 311 848 311 768 311

C679 311 676 311 668 309

C657 306 652 303 645 296

C640 291 639 289 637 282

C633 272 633 266 637 251

L637 249

L611 249

C584 249 578 248 573 244

C570 241 570 241 560 245

C550 249 550 249 500 249

C450 249 450 249 441 246

C437 244 431 241 429 239

C426 238 424 236 423 236

L423 236

L423 240

C423 245 415 288 413 294

C411 301 405 307 398 309

C393 311 384 311 284 311

C178 311 175 311 170 309

C161 306 154 297 154 289

C154 287 156 277 157 266

C159 255 161 245 160 245

C160 245 158 245 155 247

C150 248 145 248 90 249

C21 249 22 249 14 241

C6 232 6 234 14 182

C19 157 26 113 31 84

C36 54 41 28 42 25

C44 18 49 11 54 9

C58 7 62 7 121 7

C183 7 183 7 190 9

C193 11 198 13 200 13

C203 15 203 15 207 12

C213 7 215 7 250 7

C285 7 289 7 294 11

C297 14 297 14 307 10

C317 7 317 7 368 7

C419 7 419 7 427 10

C431 11 437 14 439 16

C441 18 443 19 443 19

C444 19 446 17 448 15

C455 7 455 7 493 7

C517 7 528 7 531 8

C534 9 537 11 540 14

C545 19 545 19 575 19

C591 19 605 20 607 20

C608 21 610 20 614 17

C617 14 622 12 629 10

C638 7 638 7 688 7

C738 7 738 7 746 10

C751 11 755 13 756 14

L758 15

L763 11

C765 10 768 8 770 7

C772 7 789 7 808 7

C838 7 842 8 845 9

C849 11 849 11 857 9

C864 7 868 7 880 7

C893 7 895 7 902 10

C907 11 912 14 915 16

L920 19

L925 14

C928 11 931 9 934 8

C937 7 948 7 972 7

C1004 7 1006 7 1010 9

C1012 10 1016 13 1017 15

C1021 19 1021 19 1049 19

C1076 19 1078 19 1083 21

C1090 24 1096 30 1098 36

C1099 41 1099 43 1096 63

C1094 76 1091 88 1090 92

C1089 96 1088 100 1088 103

C1088 105 1086 120 1083 137

C1077 172 1075 183 1075 186

L1075 188

L1076 188

C1076 188 1080 185 1084 182

C1099 170 1110 165 1117 168

C1119 169 1121 171 1122 171

L1122 173

L1125 173

C1131 173 1138 175 1141 178

C1146 183 1147 188 1144 202

C1138 228 1133 260 1134 261

L1134 262

L1136 259

C1141 251 1161 232 1181 215

C1203 197 1239 175 1251 172

C1256 171 1268 173 1275 176

C1282 180 1286 193 1281 202

C1280 204 1277 208 1274 212

C1267 219 1262 221 1254 220

C1248 219 1245 215 1245 210

L1245 205

L1244 205

C1244 205 1240 207 1237 209

C1229 214 1222 221 1215 230

C1199 249 1193 258 1189 263

L1186 268

L1186 269

C1187 269 1188 269 1189 269

C1191 268 1212 254 1223 246

C1231 241 1240 234 1246 231

C1249 229 1251 229 1258 229

C1268 230 1271 231 1273 238

C1274 242 1274 242 1272 250

C1267 263 1257 280 1252 286

C1249 288 1240 304 1238 307

C1238 308 1236 310 1233 312

C1229 315 1228 316 1218 316

C1210 316 1208 315 1206 314

C1203 311 1201 306 1201 300

L1201 295

L1200 295

C1199 295 1194 296 1189 296

C1178 298 1157 299 1151 297

C1145 296 1139 293 1135 290

C1134 288 1132 287 1132 287

L1131 287

L1130 291

C1129 300 1109 315 1096 316

C1091 316 1091 316 1085 311

C1078 303 1077 298 1077 281

L1077 269

L1076 269

C1076 269 1071 270 1065 271

C1059 273 1052 274 1050 275

C1045 275 1045 275 1041 283

C1039 288 1036 293 1036 295

C1034 300 1027 307 1018 311

C1013 314 1010 315 1005 315

C998 315 998 314 995 312

L993 309

L990 310

C983 314 969 317 963 315

Z

"/>

<path fill="#70390e" stroke="none" d="
M229 310

C259 310 309 310 339 310

L395 311

L284 311

L174 311

L229 310

Z

M722 310

C746 310 784 310 808 310

L852 311

L765 311

L679 311

L722 310

Z

M854 310

C854 310 856 310 856 310

L858 311

L855 311

L853 311

L854 310

Z

M962 305

C958 302 957 295 959 287

C961 276 973 251 989 225

C993 219 998 211 999 209

C1000 207 1002 203 1003 202

L1004 199

L1004 198

L1003 198

L996 203

C983 211 970 222 958 233

C944 246 939 249 930 252

C922 255 916 255 913 252

C912 251 911 249 911 249

C911 248 911 247 910 247

L909 246

L906 253

C902 261 888 285 883 291

C881 293 879 297 878 299

C871 310 861 307 863 294

C865 280 875 259 893 228

C910 201 914 197 919 191

C924 187 924 187 930 187

C939 188 947 190 948 191

L949 192

L947 195

C945 198 943 207 940 218

C939 222 938 226 937 234

L936 237

L938 237

C939 237 942 234 946 231

C975 207 1000 188 1011 183

C1015 181 1018 181 1024 181

C1029 181 1032 181 1033 182

L1034 183

L1033 185

C1031 187 1027 197 1026 203

C1024 213 1018 226 1006 246

C994 265 991 273 991 286

C991 293 991 295 988 299

C986 304 985 304 979 306

C970 309 966 309 962 305

Z

M1090 304

C1089 302 1087 299 1086 296

C1084 291 1084 277 1085 265

L1086 257

L1085 257

C1084 257 1081 258 1079 259

C1072 262 1059 265 1050 266

C1041 268 1041 268 1037 274

C1035 277 1032 283 1030 288

C1027 295 1026 297 1022 300

C1012 307 1003 309 1001 305

C999 302 1002 290 1007 280

C1012 270 1021 257 1033 244

C1041 234 1076 199 1085 191

C1097 181 1112 173 1114 176

C1116 177 1114 180 1110 183

C1108 184 1106 186 1106 186

L1106 187

L1108 186

C1125 179 1133 179 1137 186

C1138 189 1138 192 1133 212

C1127 242 1124 264 1123 279

C1123 291 1123 291 1118 296

C1113 300 1100 308 1095 308

C1094 308 1092 307 1090 304

Z

M1072 248

C1080 246 1088 245 1088 244

C1089 244 1089 243 1089 242

C1089 238 1096 220 1103 209

L1109 197

L1109 196

L1108 196

L1104 199

C1089 209 1073 223 1062 238

C1057 245 1053 251 1053 251

L1053 252

L1055 252

C1056 251 1063 250 1072 248

Z

M1210 306

C1208 303 1208 291 1211 284

L1213 280

L1213 279

L1212 279

L1205 283

C1197 288 1192 289 1174 290

C1159 291 1152 290 1146 287

C1138 283 1136 276 1141 267

C1144 260 1165 239 1184 223

C1206 204 1243 181 1253 179

C1257 179 1268 181 1272 183

C1273 184 1274 187 1275 189

C1276 195 1275 198 1269 205

C1265 210 1261 212 1257 212

C1253 212 1252 210 1253 206

C1254 204 1254 201 1254 199

L1254 196

L1250 195

C1246 195 1236 199 1229 205

C1222 210 1210 222 1202 232

C1174 268 1172 273 1177 277

C1181 280 1184 279 1191 276

C1197 274 1217 261 1230 251

C1232 249 1238 245 1243 242

C1251 237 1252 237 1257 237

C1261 237 1263 237 1265 239

C1266 241 1266 241 1265 245

C1263 252 1252 272 1248 278

C1243 284 1237 292 1234 298

C1230 305 1226 308 1218 308

C1214 308 1212 308 1210 306

Z

M175 287

C175 286 179 264 183 238

C191 192 193 180 206 103

C209 83 213 59 215 49

C217 38 219 29 219 28

C220 27 228 27 251 27

C268 27 282 27 282 28

C283 28 282 35 280 43

C279 50 274 78 270 104

C266 129 259 170 255 194

C251 218 247 238 248 238

C248 239 283 239 325 239

L402 239

L402 241

C402 243 396 282 394 288

L394 290

L284 290

L175 290

L175 287

Z

M670 289

C664 287 661 285 658 281

C654 276 654 269 659 239

C662 225 666 199 669 184

C672 168 674 154 673 154

C673 153 661 153 660 154

C660 155 657 171 654 190

C651 210 648 226 648 227

L647 228

L616 228

L585 228

L584 227

C584 226 591 186 599 137

C615 41 615 41 623 35

C625 33 629 31 632 30

C637 28 639 27 685 27

C735 27 741 27 747 31

C752 34 755 39 755 44

C756 47 754 58 750 81

C747 99 743 124 741 137

C728 212 724 236 724 238

L724 239

L800 239

C842 239 876 239 876 240

C877 240 874 246 870 253

C866 260 862 270 859 277

L855 290

L765 290

C693 290 673 290 670 289

Z

M682 101

C683 101 684 95 685 90

L687 79

L680 79

L673 79

L673 81

C672 85 669 101 669 101

L669 102

L675 102

C679 102 682 102 682 101

Z

M1002 270

L1002 268

L1003 268

L1004 268

L1004 269

C1004 269 1004 270 1003 271

L1002 271

L1002 270

Z

M28 227

C28 226 36 179 45 125

C46 118 50 95 54 72

C58 48 61 29 61 28

L62 27

L120 27

C169 27 178 27 184 29

C194 31 199 37 199 47

C199 53 190 109 188 115

C186 119 182 124 178 126

L175 127

L178 129

C181 131 184 136 184 140

C184 142 182 153 175 193

C172 213 169 219 159 224

C151 228 146 228 86 228

L29 228

L28 227

Z

M114 174

C117 159 119 149 118 149

C118 148 115 148 111 148

L105 148

L105 149

C105 149 104 155 103 163

C101 170 101 176 101 176

C101 177 104 177 108 177

L114 177

L114 174

Z

M126 106

C126 106 127 100 128 94

C129 88 130 82 130 81

L130 79

L124 79

C121 79 118 79 117 79

C117 80 112 105 113 106

C113 107 116 107 120 107

L126 107

L126 106

Z

M264 227

C263 227 265 212 268 194

C271 176 278 136 283 106

C289 75 294 48 295 45

C297 39 304 33 311 30

C317 28 317 28 367 28

C424 28 424 27 430 35

C435 40 436 46 434 55

C431 70 424 111 415 167

C409 200 405 227 404 227

C404 228 390 228 373 228

L342 228

L341 227

C341 226 344 210 347 190

C350 171 353 154 352 154

C352 153 349 153 346 153

L340 153

L339 154

C339 155 337 170 333 189

C330 207 328 223 327 225

L326 228

L295 228

C276 228 264 228 264 227

Z

M362 99

C363 98 363 94 364 90

C365 86 365 82 366 81

L366 79

L359 79

L352 79

L352 80

C352 80 351 85 350 91

C349 96 349 101 349 101

C349 102 352 102 356 102

L362 102

L362 99

Z

M449 227

C439 225 432 217 432 209

C432 206 435 185 447 115

C449 104 451 94 451 93

L451 91

L444 91

L438 91

L437 89

C437 88 443 47 445 42

L445 40

L453 40

L460 40

L460 38

C461 37 461 34 462 32

L463 28

L494 28

L526 28

L525 34

L525 40

L563 40

C584 40 601 40 601 41

C602 42 595 87 594 90

L593 91

L554 91

L516 92

L508 134

C504 157 501 176 502 176

C502 177 505 177 508 177

L515 177

L516 172

C516 169 519 153 522 137

C525 120 527 105 528 104

L528 102

L560 102

L591 102

L591 104

C591 105 589 117 587 129

C585 142 581 165 578 180

C573 209 572 215 565 220

C563 222 559 224 556 225

C551 227 550 227 502 228

C475 228 452 227 449 227

Z

M740 226

C740 225 744 200 759 112

C761 100 765 76 768 59

C771 42 773 28 774 28

C774 27 789 27 806 27

L837 28

L836 33

L836 38

L836 38

C837 38 840 36 844 35

C854 30 864 28 878 27

C895 26 905 30 910 38

C912 43 911 52 905 86

C902 104 898 129 896 142

C894 154 890 178 887 195

C884 211 882 225 881 226

L881 228

L849 228

L818 228

L818 225

C818 223 820 209 829 159

C838 106 842 82 842 81

L842 79

L836 79

L829 79

L829 81

C828 82 825 100 822 121

C818 142 813 174 809 192

C806 210 804 225 803 226

L803 228

L772 228

L741 228

L740 226

Z

M1027 224

C1028 223 1029 219 1030 215

C1032 211 1033 206 1034 204

C1035 197 1037 193 1040 190

C1041 188 1042 185 1042 183

C1042 176 1036 173 1024 173

C1016 173 1015 173 1007 177

C997 181 991 186 968 203

C959 210 951 216 950 217

L949 217

L949 216

C949 213 952 203 955 198

C957 193 958 190 955 187

C953 184 951 183 940 181

C926 178 924 178 915 184

L913 185

L913 185

C912 184 926 102 928 93

L928 91

L921 91

L914 91

L913 90

C913 88 921 42 922 41

C922 40 926 40 929 40

L936 40

L937 36

C938 33 938 30 939 29

L939 27

L971 27

L1002 27

L1002 34

L1001 40

L1039 40

L1078 40

L1078 42

C1078 45 1070 89 1070 90

C1069 91 1058 91 1031 91

L992 91

L992 94

C991 95 989 107 987 121

C985 134 982 151 980 158

C979 166 978 173 978 175

L978 177

L985 177

L991 177

L992 176

C992 175 995 159 998 139

C1001 120 1004 104 1004 103

C1005 102 1067 102 1067 103

C1068 103 1064 127 1059 155

C1053 192 1050 208 1048 211

C1044 219 1035 226 1029 226

L1027 226

L1027 224

Z

M1244 209

L1244 208

L1245 209

L1245 210

L1245 211

L1244 211

L1244 209

Z

"/>

<path fill="#00ff00" stroke="none" d="
M962 305

C958 302 957 295 959 287

C961 276 973 251 989 225

C993 219 998 211 999 209

C1000 207 1002 203 1003 202

L1004 199

L1004 198

L1003 198

L996 203

C983 211 970 222 958 233

C944 246 939 249 930 252

C922 255 916 255 913 252

C912 251 911 249 911 249

C911 248 911 247 910 247

L909 246

L906 253

C902 261 888 285 883 291

C881 293 879 297 878 299

C871 310 861 307 863 294

C865 280 875 259 893 228

C910 201 914 197 919 191

C924 187 924 187 930 187

C939 188 947 190 948 191

L949 192

L947 195

C945 198 943 207 940 218

C939 222 938 226 937 234

L936 237

L938 237

C939 237 942 234 946 231

C975 207 1000 188 1011 183

C1015 181 1018 181 1024 181

C1029 181 1032 181 1033 182

L1034 183

L1033 185

C1031 187 1027 197 1026 203

C1024 213 1018 226 1006 246

C994 265 991 273 991 286

C991 293 991 295 988 299

C986 304 985 304 979 306

C970 309 966 309 962 305

Z

M1090 304

C1089 302 1087 299 1086 296

C1084 291 1084 277 1085 265

L1086 257

L1085 257

C1084 257 1081 258 1079 259

C1072 262 1059 265 1050 266

C1041 268 1041 268 1037 274

C1035 277 1032 283 1030 288

C1027 295 1026 297 1022 300

C1012 307 1003 309 1001 305

C999 302 1002 290 1007 280

C1012 270 1021 257 1033 244

C1041 234 1076 199 1085 191

C1097 181 1112 173 1114 176

C1116 177 1114 180 1110 183

C1108 184 1106 186 1106 186

L1106 187

L1108 186

C1125 179 1133 179 1137 186

C1138 189 1138 192 1133 212

C1127 242 1124 264 1123 279

C1123 291 1123 291 1118 296

C1113 300 1100 308 1095 308

C1094 308 1092 307 1090 304

Z

M1072 248

C1080 246 1088 245 1088 244

C1089 244 1089 243 1089 242

C1089 238 1096 220 1103 209

L1109 197

L1109 196

L1108 196

L1104 199

C1089 209 1073 223 1062 238

C1057 245 1053 251 1053 251

L1053 252

L1055 252

C1056 251 1063 250 1072 248

Z

M1210 306

C1208 303 1208 291 1211 284

L1213 280

L1213 279

L1212 279

L1205 283

C1197 288 1192 289 1174 290

C1159 291 1152 290 1146 287

C1138 283 1136 276 1141 267

C1144 260 1165 239 1184 223

C1206 204 1243 181 1253 179

C1257 179 1268 181 1272 183

C1273 184 1274 187 1275 189

C1276 195 1275 198 1269 205

C1265 210 1261 212 1257 212

C1253 212 1252 210 1253 206

C1254 204 1254 201 1254 199

L1254 196

L1250 195

C1246 195 1236 199 1229 205

C1222 210 1210 222 1202 232

C1174 268 1172 273 1177 277

C1181 280 1184 279 1191 276

C1197 274 1217 261 1230 251

C1232 249 1238 245 1243 242

C1251 237 1252 237 1257 237

C1261 237 1263 237 1265 239

C1266 241 1266 241 1265 245

C1263 252 1252 272 1248 278

C1243 284 1237 292 1234 298

C1230 305 1226 308 1218 308

C1214 308 1212 308 1210 306

Z

M176 288

C176 287 180 265 184 240

C199 151 204 121 209 95

C211 80 214 60 216 51

C218 41 220 31 220 30

L221 28

L251 28

L281 28

L281 30

C281 31 279 46 276 64

C273 81 268 109 265 126

C260 156 256 181 250 216

C248 228 246 238 246 238

L246 240

L324 240

L401 240

L401 241

C401 242 395 281 393 286

L393 289

L284 289

L176 289

L176 288

Z

M671 288

C662 285 657 280 656 272

C656 268 658 253 672 172

C674 162 675 154 675 153

L674 152

L667 152

C663 152 660 152 660 153

C659 154 656 170 653 189

C650 209 647 225 647 226

L646 227

L616 227

C600 227 586 227 586 226

C585 226 586 218 588 208

C591 192 596 161 606 105

C614 54 615 50 617 45

C620 39 625 34 633 31

C639 29 639 29 688 29

C742 29 742 29 749 35

C757 42 759 25 726 215

C725 226 723 236 723 238

L723 240

L799 240

L875 240

L875 240

C875 241 872 247 868 254

C864 262 859 272 858 278

L854 289

L765 289

C696 289 675 289 671 288

Z

M683 102

C684 100 688 79 687 78

C687 77 673 77 672 78

C672 80 668 97 668 101

L668 103

L675 103

C680 103 683 103 683 102

Z

M30 226

C29 226 36 187 44 140

C52 93 59 49 60 42

L63 29

L118 28

C155 28 176 28 180 29

C187 30 192 33 195 37

C199 42 198 52 192 86

C186 121 186 122 175 126

L172 127

L172 128

C173 129 174 129 174 129

C177 129 182 134 183 137

C183 140 177 176 172 202

C170 216 162 223 148 226

C140 227 30 227 30 226

Z

M115 178

C115 178 116 171 118 164

C119 156 120 149 120 148

L120 147

L112 147

L104 147

L104 150

C101 163 99 176 100 177

C100 178 103 178 108 178

L115 178

L115 178

Z

M127 108

C127 107 128 101 129 93

C131 85 132 78 131 78

C131 76 117 77 116 78

C115 79 111 104 111 107

L111 108

L119 108

L127 108

L127 108

Z

M265 226

C264 225 294 51 296 46

C298 40 304 34 312 31

C318 29 318 29 368 29

C418 29 418 29 423 31

C430 34 432 38 433 44

C434 48 431 68 419 137

C417 146 413 170 410 189

C407 209 404 226 403 226

C403 227 343 227 343 226

C342 226 345 210 348 190

C351 171 354 154 354 153

L353 152

L346 152

C342 152 339 152 339 153

C338 153 335 170 332 189

C329 209 326 226 325 226

C325 227 265 227 265 226

Z

M364 98

C366 86 367 80 367 78

L366 77

L359 77

C355 77 352 77 352 78

C351 79 347 99 347 102

L347 103

L355 103

L363 103

L364 98

Z

M450 226

C441 224 435 219 434 211

C433 209 435 195 439 171

C442 152 447 125 449 113

L453 91

L452 90

C451 89 448 89 444 89

L438 89

L438 88

C438 87 445 47 446 44

L446 41

L454 41

L461 41

L461 39

C462 38 462 35 463 33

L464 29

L494 29

L525 29

L524 33

C524 35 524 37 524 39

L524 41

L562 41

L601 42

L600 44

C600 45 598 56 596 67

C595 78 593 87 593 88

L593 89

L555 89

C525 89 516 89 515 90

C514 92 500 176 501 177

C501 178 504 178 508 178

L516 178

L516 176

C517 175 519 161 522 144

C525 127 528 111 528 108

L529 103

L560 103

L590 103

L590 107

C589 110 588 119 586 128

C584 137 581 158 578 175

C575 193 572 207 571 210

C567 219 560 224 549 226

C542 227 457 227 450 226

Z

M742 226

C741 226 744 209 747 189

C755 140 762 101 769 63

C772 45 774 30 775 29

L775 28

L805 28

L836 29

L835 34

L835 40

L836 40

C836 40 839 38 843 36

C853 31 866 29 880 29

C890 29 894 29 898 30

C906 33 910 39 910 47

C910 51 882 222 880 226

L880 227

L850 227

L819 227

L819 226

C819 225 822 209 836 127

C844 78 844 80 843 78

L843 77

L836 77

C832 77 829 77 828 78

C828 79 825 92 822 108

C820 124 814 157 810 182

L802 227

L772 227

C754 227 742 227 742 226

Z

M1030 222

C1030 220 1031 217 1032 214

C1033 212 1034 208 1035 205

C1035 203 1037 198 1038 196

L1039 191

L1040 191

L1041 191

L1043 187

C1047 178 1037 170 1021 171

C1009 172 998 178 968 202

C960 208 954 213 953 214

L951 215

L951 215

C950 214 954 202 956 199

C960 192 958 185 951 182

C946 180 930 178 926 178

C923 179 920 180 918 181

L915 183

L914 183

C914 182 917 163 921 139

C925 115 928 94 928 93

L929 90

L921 89

L914 89

L914 87

C915 85 917 75 918 64

C920 52 922 42 923 42

C923 41 927 41 931 41

L938 41

L939 35

C939 32 940 30 941 29

C941 28 951 28 971 28

L1001 29

L1000 35

L1000 41

L1038 41

L1077 41

L1077 42

C1077 42 1075 52 1073 65

C1071 78 1069 88 1069 89

L1069 89

L1030 89

L992 89

L991 91

C991 92 987 110 984 130

C976 178 976 176 977 177

C977 178 980 178 985 178

L992 178

L993 177

C993 176 996 160 999 140

C1002 121 1005 104 1006 104

C1006 103 1020 103 1036 103

L1066 103

L1066 108

C1063 124 1049 207 1048 210

C1044 217 1039 222 1031 224

L1029 225

L1030 222

Z

"/>

<path fill="#f57901" stroke="none" d="
M962 305

C958 302 957 295 959 287

C961 276 973 251 989 225

C993 219 998 211 999 209

C1000 207 1002 203 1003 202

L1004 199

L1004 198

L1003 198

L996 203

C983 211 970 222 958 233

C944 246 939 249 930 252

C922 255 916 255 913 252

C912 251 911 249 911 249

C911 248 911 247 910 247

L909 246

L906 253

C902 261 888 285 883 291

C881 293 879 297 878 299

C871 310 861 307 863 294

C865 280 875 259 893 228

C910 201 914 197 919 191

C924 187 924 187 930 187

C939 188 947 190 948 191

L949 192

L947 195

C945 198 943 207 940 218

C939 222 938 226 937 234

L936 237

L938 237

C939 237 942 234 946 231

C975 207 1000 188 1011 183

C1015 181 1018 181 1024 181

C1029 181 1032 181 1033 182

L1034 183

L1033 185

C1031 187 1027 197 1026 203

C1024 213 1018 226 1006 246

C994 265 991 273 991 286

C991 293 991 295 988 299

C986 304 985 304 979 306

C970 309 966 309 962 305

Z

M1090 304

C1089 302 1087 299 1086 296

C1084 291 1084 277 1085 265

L1086 257

L1085 257

C1084 257 1081 258 1079 259

C1072 262 1059 265 1050 266

C1041 268 1041 268 1037 274

C1035 277 1032 283 1030 288

C1027 295 1026 297 1022 300

C1012 307 1003 309 1001 305

C999 302 1002 290 1007 280

C1012 270 1021 257 1033 244

C1041 234 1076 199 1085 191

C1097 181 1112 173 1114 176

C1116 177 1114 180 1110 183

C1108 184 1106 186 1106 186

L1106 187

L1108 186

C1125 179 1133 179 1137 186

C1138 189 1138 192 1133 212

C1127 242 1124 264 1123 279

C1123 291 1123 291 1118 296

C1113 300 1100 308 1095 308

C1094 308 1092 307 1090 304

Z

M1072 248

C1080 246 1088 245 1088 244

C1089 244 1089 243 1089 242

C1089 238 1096 220 1103 209

L1109 197

L1109 196

L1108 196

L1104 199

C1089 209 1073 223 1062 238

C1057 245 1053 251 1053 251

L1053 252

L1055 252

C1056 251 1063 250 1072 248

Z

M1210 306

C1208 303 1208 291 1211 284

L1213 280

L1213 279

L1212 279

L1205 283

C1197 288 1192 289 1174 290

C1159 291 1152 290 1146 287

C1138 283 1136 276 1141 267

C1144 260 1165 239 1184 223

C1206 204 1243 181 1253 179

C1257 179 1268 181 1272 183

C1273 184 1274 187 1275 189

C1276 195 1275 198 1269 205

C1265 210 1261 212 1257 212

C1253 212 1252 210 1253 206

C1254 204 1254 201 1254 199

L1254 196

L1250 195

C1246 195 1236 199 1229 205

C1222 210 1210 222 1202 232

C1174 268 1172 273 1177 277

C1181 280 1184 279 1191 276

C1197 274 1217 261 1230 251

C1232 249 1238 245 1243 242

C1251 237 1252 237 1257 237

C1261 237 1263 237 1265 239

C1266 241 1266 241 1265 245

C1263 252 1252 272 1248 278

C1243 284 1237 292 1234 298

C1230 305 1226 308 1218 308

C1214 308 1212 308 1210 306

Z

M176 288

C176 287 180 265 184 240

C199 151 204 121 209 95

C211 80 214 60 216 51

C218 41 220 31 220 30

L221 28

L251 28

L281 28

L281 30

C281 31 279 46 276 64

C273 81 268 109 265 126

C260 156 256 181 250 216

C248 228 246 238 246 238

L246 240

L324 240

L401 240

L401 241

C401 242 395 281 393 286

L393 289

L284 289

L176 289

L176 288

Z

M671 288

C662 285 657 280 656 272

C656 268 658 253 672 172

C674 162 675 154 675 153

L674 152

L667 152

C663 152 660 152 660 153

C659 154 656 170 653 189

C650 209 647 225 647 226

L646 227

L616 227

C600 227 586 227 586 226

C585 226 586 218 588 208

C591 192 596 161 606 105

C614 54 615 50 617 45

C620 39 625 34 633 31

C639 29 639 29 688 29

C742 29 742 29 749 35

C757 42 759 25 726 215

C725 226 723 236 723 238

L723 240

L799 240

L875 240

L875 240

C875 241 872 247 868 254

C864 262 859 272 858 278

L854 289

L765 289

C696 289 675 289 671 288

Z

M683 102

C684 100 688 79 687 78

C687 77 673 77 672 78

C672 80 668 97 668 101

L668 103

L675 103

C680 103 683 103 683 102

Z

M30 226

C29 226 36 187 44 140

C52 93 59 49 60 42

L63 29

L118 28

C155 28 176 28 180 29

C187 30 192 33 195 37

C199 42 198 52 192 86

C186 121 186 122 175 126

L172 127

L172 128

C173 129 174 129 174 129

C177 129 182 134 183 137

C183 140 177 176 172 202

C170 216 162 223 148 226

C140 227 30 227 30 226

Z

M115 178

C115 178 116 171 118 164

C119 156 120 149 120 148

L120 147

L112 147

L104 147

L104 150

C101 163 99 176 100 177

C100 178 103 178 108 178

L115 178

L115 178

Z

M127 108

C127 107 128 101 129 93

C131 85 132 78 131 78

C131 76 117 77 116 78

C115 79 111 104 111 107

L111 108

L119 108

L127 108

L127 108

Z

M265 226

C264 225 294 51 296 46

C298 40 304 34 312 31

C318 29 318 29 368 29

C418 29 418 29 423 31

C430 34 432 38 433 44

C434 48 431 68 419 137

C417 146 413 170 410 189

C407 209 404 226 403 226

C403 227 343 227 343 226

C342 226 345 210 348 190

C351 171 354 154 354 153

L353 152

L346 152

C342 152 339 152 339 153

C338 153 335 170 332 189

C329 209 326 226 325 226

C325 227 265 227 265 226

Z

M364 98

C366 86 367 80 367 78

L366 77

L359 77

C355 77 352 77 352 78

C351 79 347 99 347 102

L347 103

L355 103

L363 103

L364 98

Z

M450 226

C441 224 435 219 434 211

C433 209 435 195 439 171

C442 152 447 125 449 113

L453 91

L452 90

C451 89 448 89 444 89

L438 89

L438 88

C438 87 445 47 446 44

L446 41

L454 41

L461 41

L461 39

C462 38 462 35 463 33

L464 29

L494 29

L525 29

L524 33

C524 35 524 37 524 39

L524 41

L562 41

L601 42

L600 44

C600 45 598 56 596 67

C595 78 593 87 593 88

L593 89

L555 89

C525 89 516 89 515 90

C514 92 500 176 501 177

C501 178 504 178 508 178

L516 178

L516 176

C517 175 519 161 522 144

C525 127 528 111 528 108

L529 103

L560 103

L590 103

L590 107

C589 110 588 119 586 128

C584 137 581 158 578 175

C575 193 572 207 571 210

C567 219 560 224 549 226

C542 227 457 227 450 226

Z

M742 226

C741 226 744 209 747 189

C755 140 762 101 769 63

C772 45 774 30 775 29

L775 28

L805 28

L836 29

L835 34

L835 40

L836 40

C836 40 839 38 843 36

C853 31 866 29 880 29

C890 29 894 29 898 30

C906 33 910 39 910 47

C910 51 882 222 880 226

L880 227

L850 227

L819 227

L819 226

C819 225 822 209 836 127

C844 78 844 80 843 78

L843 77

L836 77

C832 77 829 77 828 78

C828 79 825 92 822 108

C820 124 814 157 810 182

L802 227

L772 227

C754 227 742 227 742 226

Z

M1030 222

C1030 220 1031 217 1032 214

C1033 212 1034 208 1035 205

C1035 203 1037 198 1038 196

L1039 191

L1040 191

L1041 191

L1043 187

C1047 178 1037 170 1021 171

C1009 172 998 178 968 202

C960 208 954 213 953 214

L951 215

L951 215

C950 214 954 202 956 199

C960 192 958 185 951 182

C946 180 930 178 926 178

C923 179 920 180 918 181

L915 183

L914 183

C914 182 917 163 921 139

C925 115 928 94 928 93

L929 90

L921 89

L914 89

L914 87

C915 85 917 75 918 64

C920 52 922 42 923 42

C923 41 927 41 931 41

L938 41

L939 35

C939 32 940 30 941 29

C941 28 951 28 971 28

L1001 29

L1000 35

L1000 41

L1038 41

L1077 41

L1077 42

C1077 42 1075 52 1073 65

C1071 78 1069 88 1069 89

L1069 89

L1030 89

L992 89

L991 91

C991 92 987 110 984 130

C976 178 976 176 977 177

C977 178 980 178 985 178

L992 178

L993 177

C993 176 996 160 999 140

C1002 121 1005 104 1006 104

C1006 103 1020 103 1036 103

L1066 103

L1066 108

C1063 124 1049 207 1048 210

C1044 217 1039 222 1031 224

L1029 225

L1030 222

Z

"/>

<path fill="#286ae6" stroke="none" d="
M962 305

C958 302 957 295 959 287

C961 276 973 251 989 225

C993 219 998 211 999 209

C1000 207 1002 203 1003 202

L1004 199

L1004 198

L1003 198

L996 203

C983 211 970 222 958 233

C944 246 939 249 930 252

C922 255 916 255 913 252

C912 251 911 249 911 249

C911 248 911 247 910 247

L909 246

L906 253

C902 261 888 285 883 291

C881 293 879 297 878 299

C871 310 861 307 863 294

C865 280 875 259 893 228

C910 201 914 197 919 191

C924 187 924 187 930 187

C939 188 947 190 948 191

L949 192

L947 195

C945 198 943 207 940 218

C939 222 938 226 937 234

L936 237

L938 237

C939 237 942 234 946 231

C975 207 1000 188 1011 183

C1015 181 1018 181 1024 181

C1029 181 1032 181 1033 182

L1034 183

L1033 185

C1031 187 1027 197 1026 203

C1024 213 1018 226 1006 246

C994 265 991 273 991 286

C991 293 991 295 988 299

C986 304 985 304 979 306

C970 309 966 309 962 305

Z

M1090 304

C1089 302 1087 299 1086 296

C1084 291 1084 277 1085 265

L1086 257

L1085 257

C1084 257 1081 258 1079 259

C1072 262 1059 265 1050 266

C1041 268 1041 268 1037 274

C1035 277 1032 283 1030 288

C1027 295 1026 297 1022 300

C1012 307 1003 309 1001 305

C999 302 1002 290 1007 280

C1012 270 1021 257 1033 244

C1041 234 1076 199 1085 191

C1097 181 1112 173 1114 176

C1116 177 1114 180 1110 183

C1108 184 1106 186 1106 186

L1106 187

L1108 186

C1125 179 1133 179 1137 186

C1138 189 1138 192 1133 212

C1127 242 1124 264 1123 279

C1123 291 1123 291 1118 296

C1113 300 1100 308 1095 308

C1094 308 1092 307 1090 304

Z

M1072 248

C1080 246 1088 245 1088 244

C1089 244 1089 243 1089 242

C1089 238 1096 220 1103 209

L1109 197

L1109 196

L1108 196

L1104 199

C1089 209 1073 223 1062 238

C1057 245 1053 251 1053 251

L1053 252

L1055 252

C1056 251 1063 250 1072 248

Z

M1210 306

C1208 303 1208 291 1211 284

L1213 280

L1213 279

L1212 279

L1205 283

C1197 288 1192 289 1174 290

C1159 291 1152 290 1146 287

C1138 283 1136 276 1141 267

C1144 260 1165 239 1184 223

C1206 204 1243 181 1253 179

C1257 179 1268 181 1272 183

C1273 184 1274 187 1275 189

C1276 195 1275 198 1269 205

C1265 210 1261 212 1257 212

C1253 212 1252 210 1253 206

C1254 204 1254 201 1254 199

L1254 196

L1250 195

C1246 195 1236 199 1229 205

C1222 210 1210 222 1202 232

C1174 268 1172 273 1177 277

C1181 280 1184 279 1191 276

C1197 274 1217 261 1230 251

C1232 249 1238 245 1243 242

C1251 237 1252 237 1257 237

C1261 237 1263 237 1265 239

C1266 241 1266 241 1265 245

C1263 252 1252 272 1248 278

C1243 284 1237 292 1234 298

C1230 305 1226 308 1218 308

C1214 308 1212 308 1210 306

Z

"/>

<path fill="#00ffff" stroke="none" d="
"/>

<path fill="#ffff00" stroke="none" d="
"/>

<path fill="#ffffff" stroke="none" d="
"/>

</svg>

